<svg xmlns="http://www.w3.org/2000/svg" width="512" height="512" viewBox="0 0 512 512" fill="none">
  <rect width="512" height="512" rx="100" fill="url(#paint0_linear)" />
  <path d="M156 176C156 167.163 163.163 160 172 160H340C348.837 160 356 167.163 356 176V236C356 244.837 348.837 252 340 252H172C163.163 252 156 244.837 156 236V176Z" fill="white" fill-opacity="0.9"/>
  <path d="M156 276C156 267.163 163.163 260 172 260H340C348.837 260 356 267.163 356 276V336C356 344.837 348.837 352 340 352H172C163.163 352 156 344.837 156 336V276Z" fill="white" fill-opacity="0.9"/>
  <path d="M172 160H220V252H172V160Z" fill="#4F46E5"/>
  <path d="M172 260H220V352H172V260Z" fill="#7C3AED"/>
  <defs>
    <linearGradient id="paint0_linear" x1="0" y1="0" x2="512" y2="512" gradientUnits="userSpaceOnUse">
      <stop stop-color="#4F46E5" />
      <stop offset="1" stop-color="#7C3AED" />
    </linearGradient>
  </defs>
</svg>
